<?xml version="1.0" encoding="utf-8"?>
<!-- Generator: Adobe Illustrator 26.0.3, SVG Export Plug-In . SVG Version: 6.00 Build 0)  -->
<svg version="1.0" id="katman_1" xmlns="http://www.w3.org/2000/svg" xmlns:xlink="http://www.w3.org/1999/xlink" x="0px" y="0px"
	 viewBox="0 0 800 600" style="enable-background:new 0 0 800 600;" xml:space="preserve">
<style type="text/css">
	.st0{fill:#242728;}
</style>
<path class="st0" d="M121,237.1h16.7l44.4,98.4h-17.9l-7.7-17h-54.1l-7.7,17H76.7L121,237.1z M150.3,304.5L139.1,279
	c-4.3-9.7-9.7-22.9-9.7-22.9s-5.3,13-9.7,22.9l-11.2,25.5H150.3z"/>
<path class="st0" d="M184.9,260.3h16.8v14.9c2.9-7.6,11.1-16.4,27.2-16.4v18.4c-16.6,0-27.2,7.9-27.2,27.6v30.6h-16.8L184.9,260.3z"
	/>
<path class="st0" d="M228.4,298c0.1-21.7,17.8-39.3,39.5-39.2c0.1,0,0.2,0,0.4,0c9.8,0,19.4,3.4,26.9,9.7l-10.5,12
	c-4.5-3.8-10.3-5.7-16.1-5.4c-12.3-0.4-22.6,9.2-23.1,21.5c0,0.5,0,1,0,1.4c0,12.9,9.1,22.8,23.5,22.8c6.7,0.1,13.3-2.2,18.4-6.5
	l9.3,12.8c-8,6.6-18.1,10.1-28.4,9.9C246.2,337,228.4,319.9,228.4,298z"/>
<path class="st0" d="M295.3,298c0-21.6,14.1-39.2,34.8-39.2c9.6-0.2,18.8,3.9,25,11.1v-9.6h16.9v75.2h-16.9v-9.4
	c-6.3,7.2-15.5,11.2-25,10.9C309.5,337,295.3,319.6,295.3,298z M355.2,298c0-13.2-8.8-22.9-20.8-22.9c-12.8,0-21.9,9.7-21.9,22.9
	c0,13.2,9.1,22.8,21.9,22.8C346.2,320.8,355.2,311.4,355.2,298L355.2,298z"/>
<path class="st0" d="M379.5,298c0-21.6,14.1-39.2,34.8-39.2c9.6-0.2,18.8,3.9,25,11.1v-34.3h16.9v99.9h-16.1v-9.4
	c-6.6,7.2-16,11.2-25.8,10.9C393.6,337,379.5,319.6,379.5,298z M439.3,298c0-13.2-8.8-22.9-20.8-22.9c-12.8,0-21.9,9.7-21.9,22.9
	c0,13.2,9.1,22.8,21.9,22.8C430.4,320.8,439.3,311.4,439.3,298z"/>
<path class="st0" d="M463.4,298c-0.3-21.4,16.8-38.9,38.2-39.2c0.2,0,0.4,0,0.5,0c20,0,36.1,17.5,36.1,38.6c0,2.2-0.2,4.4-0.5,6.5
	h-57c2.4,12,12.1,18.2,23.4,18.2c7.7,0,15.2-2.2,21.6-6.5l6.7,12.5c-8.4,5.8-18.4,8.9-28.6,9C482.5,337,463.4,322.7,463.4,298z
	 M521.8,291.5c-1.3-10.4-10.2-18.1-20.7-18c-9.7,0-18.2,7.2-20.5,18H521.8z"/>
<path class="st0" d="M541.8,326.5c-0.1-5.8,4.6-10.6,10.4-10.6c0,0,0,0,0.1,0c5.8-0.2,10.7,4.3,11,10.1c0.2,5.8-4.3,10.7-10.1,11
	c-0.3,0-0.6,0-0.9,0c-5.7,0-10.4-4.6-10.5-10.3C541.8,326.7,541.8,326.6,541.8,326.5z"/>
<path class="st0" d="M643.7,238.5l-50.8,26.2v58.5l50.8,31.9l50.8-31.9v-58.5L643.7,238.5z M635.5,330.4L609,314.3v-29.8l26.6,15.8
	V330.4z M617.9,270.8l26-13.7l27,13.7l-27,15.1L617.9,270.8z M651.4,330.5v-30.1l27-15.8v29.8L651.4,330.5z"/>
<path class="st0" d="M659,240.5c-0.1-0.2,0-0.6,0.4-1.1c0.5-0.7,1.1-1.3,1.8-1.8c2.6-2,5.3-3.7,8.2-5.1c2.1-1.1,4.2-2,6.5-2.8
	c2.7-1,5.4-1.8,8.2-2.5l1.2-0.2l1.2-0.2c0.8-0.1,1.6-0.3,2.5-0.3s1.7-0.2,2.6-0.3c0.9-0.1,1.8,0,2.7,0c1.9,0,3.9,0.2,5.8,0.5
	c2.1,0.4,4.2,1,6.2,1.8c2.2,0.9,4.2,2.1,6,3.6l0.7,0.6c0.2,0.2,0.5,0.4,0.7,0.6l0.7,0.6c0.2,0.2,0.4,0.4,0.6,0.7
	c0.4,0.4,0.9,0.9,1.2,1.4c0.2,0.2,0.4,0.5,0.6,0.7l0.6,0.8l0.5,0.8c0.2,0.3,0.3,0.5,0.5,0.8l0.3,0.4c0.1,0.1,0.1,0.3,0.2,0.4
	l0.5,0.8l0.4,0.8l0.2,0.4l0.2,0.4l0.4,0.9l0.3,0.9l0.2,0.5l0.1,0.5l0.3,0.9l0.3,0.9c0,0.2,0.1,0.3,0.1,0.5l0.1,0.5l0.2,0.9l0.2,0.9
	l0.1,0.5v0.5l0.1,0.9c0.3,2.5,0.5,5,0.5,7.5c-0.1,2.5-0.3,5-0.6,7.5c-0.8,5-2,10-3.6,14.8c-1.7,4.9-3.7,9.7-6,14.4
	c-2.4,4.8-5.1,9.5-8,14c-6.1,9.4-13,18.3-20.8,26.4c-7.7,8.2-16.1,15.6-25.2,22.2c-4.4,3.1-8.9,6-13.6,8.7
	c-4.5,2.6-9.2,4.8-14.1,6.8c-4.7,1.9-9.6,3.4-14.6,4.4c-2.5,0.5-4.9,0.8-7.4,1c-2.5,0.2-5,0.2-7.5,0l-1.8-0.2l-0.9-0.1l-0.9-0.2
	l-0.9-0.2l-0.9-0.2c-0.6-0.2-1.2-0.3-1.8-0.5c-1.2-0.4-2.4-0.8-3.6-1.4c-0.6-0.3-1.1-0.5-1.7-0.8l-0.8-0.5l-0.8-0.5
	c-1.1-0.7-2.1-1.4-3-2.3c-0.5-0.4-0.9-0.8-1.4-1.2c-0.4-0.4-0.8-0.9-1.2-1.4c-1.5-1.8-2.8-3.7-3.8-5.8c-0.9-1.9-1.6-4-2.1-6.1
	c-0.4-1.9-0.7-3.8-0.8-5.8c0-0.5,0-0.9,0-1.4c0-0.5,0-0.9,0-1.4v-1.3v-0.6v-0.6c0-0.8,0.1-1.7,0.2-2.5c0-0.4,0.1-0.8,0.2-1.2
	c0.1-0.4,0.1-0.8,0.2-1.2c0.5-2.8,1.2-5.6,2-8.3c0.8-2.5,1.7-4.6,2.5-6.6c1.3-3,2.8-5.8,4.7-8.5c0.5-0.7,1-1.4,1.7-1.9
	c0.5-0.4,0.8-0.5,1-0.4c0.2,0.1,0.3,0.5,0.4,1.1c0,0.8-0.1,1.7-0.3,2.5c-0.4,2.1-1.1,5.2-1.9,9c-0.4,1.9-0.8,4.1-1.1,6.4
	c-0.4,2.5-0.6,5-0.6,7.5c0,0.3,0,0.7,0,1c0,0.3,0,0.7,0,1c0,0.7,0,1.4,0,2.1v0.5v0.3v0.3l0.1,1.1c0,0.3,0.1,0.7,0.1,1
	c0.1,0.4,0.1,0.7,0.2,1c0.2,1.4,0.6,2.8,1,4.1c0.5,1.3,1.1,2.6,1.8,3.8c0.7,1.2,1.6,2.3,2.6,3.2l0.8,0.7c0.3,0.2,0.5,0.4,0.8,0.6
	c0.6,0.4,1.2,0.8,1.8,1.1c2.9,1.4,6,2.2,9.2,2.2c1.8,0,3.6-0.1,5.4-0.3c2-0.3,3.9-0.6,5.8-1.1c4.1-1.1,8.2-2.5,12.1-4.3
	c4.2-1.9,8.3-4,12.2-6.4c4.2-2.5,8.2-5.3,12.1-8.2c8.3-6.2,16-13.1,23.1-20.6c7.1-7.5,13.6-15.6,19.4-24.1c2.8-4.1,5.3-8.3,7.5-12.6
	c2.2-4.1,4.1-8.3,5.7-12.6c1.6-4,2.8-8.1,3.6-12.3c0.4-1.9,0.7-3.9,0.8-5.9c0.1-1.8,0.1-3.7,0-5.5c-0.2-3.2-1.1-6.2-2.6-9
	c-0.1-0.2-0.2-0.3-0.3-0.5c-0.1-0.1-0.2-0.3-0.3-0.5c-0.2-0.3-0.4-0.6-0.6-0.8l0-0.5l-0.4-0.4c-0.1-0.1-0.2-0.3-0.4-0.4l-0.4-0.4
	c-1-0.9-2.1-1.8-3.4-2.4c-1.2-0.7-2.5-1.2-3.9-1.6c-1.4-0.4-2.8-0.7-4.2-0.8c-0.7-0.1-1.4-0.1-2.1-0.2c-0.7-0.1-1.4,0-2.1,0
	s-1.4,0-2.1,0h-1h-1c-2.5,0.2-5,0.6-7.5,1c-2.3,0.5-4.4,1-6.3,1.5c-3.8,1-6.8,1.8-8.9,2.4c-0.8,0.2-1.6,0.3-2.5,0.4
	C659.5,240.8,659.2,240.7,659,240.5z"/>
</svg>
