<?xml version="1.0" encoding="utf-8"?>
<!-- Generator: Adobe Illustrator 26.0.3, SVG Export Plug-In . SVG Version: 6.00 Build 0)  -->
<svg version="1.0" id="katman_1" xmlns="http://www.w3.org/2000/svg" xmlns:xlink="http://www.w3.org/1999/xlink" x="0px" y="0px"
	 viewBox="0 0 800 600" style="enable-background:new 0 0 800 600;" xml:space="preserve">
<style type="text/css">
	.st0{fill:#292E35;}
	.st1{fill:#4178B7;}
	.st2{opacity:0.9;fill:#4178B7;enable-background:new    ;}
	.st3{opacity:0.8;fill:#4178B7;enable-background:new    ;}
	.st4{opacity:0.7;fill:#4178B7;enable-background:new    ;}
	.st5{opacity:0.6;fill:#4178B7;enable-background:new    ;}
	.st6{opacity:0.5;fill:#4178B7;enable-background:new    ;}
	.st7{opacity:0.4;fill:#4178B7;enable-background:new    ;}
	.st8{fill:none;}
</style>
<path class="st0" d="M308.6,260.8h13.7c3.5,0,5.7,0.7,7.5,2.5c1,1,1.7,2.5,1.7,4.2c0,3.2-1.7,5-4.2,6c3.2,1,5.2,3,5.2,6.5
	c0,4.7-3.7,7.5-10.2,7.5h-13.7V260.8z M320.6,271.5c2.2,0,3.5-0.7,3.5-2.2s-1.2-2.2-3.5-2.2h-4.7v4.7h4.7V271.5z M321.6,281.8
	c2.2,0,3.5-1,3.5-2.5c0-1.5-1.2-2.5-3.7-2.5h-5.7v5H321.6z M350,260.8h7.5v20.4h13v6.5H350V260.8z M385.1,274.3
	c0-7.7,6.2-14.2,14.5-14.2c8.2,0,14.5,6.2,14.5,14s-6.2,14-14.5,14C391.4,288.2,385.1,282,385.1,274.3z M406.6,274.3
	c0-4-2.7-7.5-7-7.5c-4,0-6.7,3.2-6.7,7.2c0,4,2.7,7.2,7,7.2C403.8,281.5,406.6,278.3,406.6,274.3z M431,274.3c0-8,6-14.2,14.2-14.2
	c5.5,0,9,2.2,11.5,5.7l-5.7,4.2c-1.5-2-3.2-3.2-6-3.2c-3.7,0-6.5,3.2-6.5,7.2c0,4,2.7,7.2,6.5,7.2c2.7,0,4.5-1.2,6-3.2l5.7,4
	c-2.5,3.5-6,6-12,6C437.2,288.2,431,282.5,431,274.3z M474.1,260.8h7.5v11l9.2-11h9l-10.2,11.7L500,288h-9l-6.7-10l-2.7,3v7h-7.5
	L474.1,260.8L474.1,260.8z M513,274.3c0-8,6-14.2,14.2-14.2c5.5,0,9,2.2,11.5,5.7l-5.7,4.2c-1.5-2-3.2-3.2-6-3.2
	c-3.7,0-6.5,3.2-6.5,7.2c0,4,2.7,7.2,6.5,7.2c2.7,0,4.5-1.2,6-3.2l5.7,4c-2.5,3.5-6,6-12,6C519.2,288.2,513,282.5,513,274.3z
	 M555.9,260.8h7.5v10h9.5v-10h7.5v26.9h-7.5v-10.2h-9.5v10.2h-7.5V260.8z M608.5,260.6h7.2l11.5,27.2h-8l-2-4.7h-10.5l-2,4.7h-8
	L608.5,260.6z M615,277l-3-7.7l-3,7.7H615z M643.6,260.8h7.5v26.9h-7.5V260.8z M670,260.8h7l11.2,14.2v-14.2h7.5v26.9h-6.5
	L677.8,273v14.7h-7.5v-26.9H670z M308.8,325.4c0-7.7,5.7-14,13.7-14c5,0,7.7,1.7,10.5,4.2l-2,2.2c-2.5-2.2-5-3.7-8.5-3.7
	c-6,0-10.5,4.7-10.5,11c0,6.2,4.5,11.2,10.5,11.2c3.7,0,6.2-1.5,8.7-4l2,2c-2.7,2.7-6,4.7-10.7,4.7
	C314.6,339.3,308.8,333.1,308.8,325.4z M362.4,311.7h2.7l12.2,27.2h-3.2l-3.2-7.2h-14.7l-3.2,7.2h-3.2L362.4,311.7L362.4,311.7z
	 M369.9,328.9l-6.2-13.7l-6.2,13.7H369.9z M396.6,311.9h10c6,0,10,3.2,10,8.5c0,5.7-4.7,8.7-10.7,8.7h-6.5v9.5h-3v-26.7H396.6z
	 M406.3,326.6c4.5,0,7.5-2.5,7.5-6c0-3.7-3-5.7-7.2-5.7h-6.7v12h6.5V326.6z M436.5,311.9h3v26.9h-3V311.9z M468.4,314.7h-9v-2.7
	h21.2v2.7h-9v24.2h-3v-24.2H468.4z M506.8,311.7h2.7l12.2,27.2h-3.2l-3.2-7.2h-14.7l-3.2,7.2h-3.2L506.8,311.7z M514.2,328.9
	l-6.2-13.7l-6.2,13.7H514.2z M540.9,311.9h3v24.2h15.2v2.7h-18.2V311.9z"/>
<g>
	<circle class="st1" cx="204.9" cy="315.7" r="6"/>
	<circle class="st2" cx="214.9" cy="327.6" r="5.5"/>
	<circle class="st3" cx="223.3" cy="339.1" r="5"/>
	<circle class="st4" cx="229.8" cy="350.3" r="4"/>
	<circle class="st5" cx="235.1" cy="361" r="3.2"/>
	<circle class="st6" cx="238.5" cy="371.8" r="3"/>
	<circle class="st7" cx="240.5" cy="381.7" r="2.2"/>
	<circle class="st1" cx="206.4" cy="295.5" r="6"/>
	<circle class="st2" cx="220.8" cy="289.7" r="5.5"/>
	<circle class="st3" cx="234.3" cy="285" r="5"/>
	<circle class="st4" cx="246.8" cy="282.3" r="4"/>
	<circle class="st5" cx="258.7" cy="280.8" r="3.2"/>
	<circle class="st6" cx="270" cy="280.8" r="3"/>
	<circle class="st7" cx="280.2" cy="281.8" r="2.2"/>
	<circle class="st1" cx="187.4" cy="287.7" r="6"/>
	<circle class="st2" cx="186.4" cy="272" r="5.5"/>
	<circle class="st3" cx="186.2" cy="257.8" r="5"/>
	<circle class="st4" cx="187.4" cy="245.1" r="4"/>
	<circle class="st5" cx="189.7" cy="233.4" r="3.2"/>
	<circle class="st6" cx="192.9" cy="222.7" r="3"/>
	<circle class="st7" cx="197.2" cy="213.2" r="2.2"/>
	<circle class="st1" cx="174.2" cy="303.5" r="6"/>
	<circle class="st2" cx="159" cy="299.5" r="5.5"/>
	<circle class="st3" cx="145.6" cy="295.2" r="5"/>
	<circle class="st4" cx="133.8" cy="290" r="4"/>
	<circle class="st5" cx="123.1" cy="284.3" r="3.2"/>
	<circle class="st6" cx="114.2" cy="277.8" r="3"/>
	<circle class="st7" cx="106.4" cy="271" r="2.2"/>
	<circle class="st1" cx="184.9" cy="320.7" r="6"/>
	<circle class="st2" cx="176.7" cy="333.9" r="5.5"/>
	<circle class="st3" cx="168.5" cy="345.6" r="5"/>
	<circle class="st4" cx="159.8" cy="355.1" r="4"/>
	<circle class="st5" cx="151.3" cy="363.3" r="3.2"/>
	<circle class="st6" cx="142.3" cy="370" r="3"/>
	<circle class="st7" cx="133.3" cy="375" r="2.2"/>
</g>
<path class="st8" d="M40.9,152.4h717.9v294.4H40.9L40.9,152.4z"/>
</svg>
