<?xml version="1.0" encoding="utf-8"?>
<!-- Generator: Adobe Illustrator 26.0.3, SVG Export Plug-In . SVG Version: 6.00 Build 0)  -->
<svg version="1.0" id="katman_1" xmlns="http://www.w3.org/2000/svg" xmlns:xlink="http://www.w3.org/1999/xlink" x="0px" y="0px"
	 viewBox="0 0 600 450" style="enable-background:new 0 0 600 450;" xml:space="preserve">
<style type="text/css">
	.st0{fill:#CB4050;}
	.st1{fill:#93384B;}
	.st2{fill:#EDD1D0;}
	.st3{fill:#DAB2B5;}
	.st4{fill:#C9949C;}
	.st5{fill:#F4EAE6;}
</style>
<path d="M157.5,213.6l6.2,17.8l5.7-17.8h14.3l-11.8,35.7h-15.9l-6-16.6h-0.7l2.1,5.9l-3.8,10.7h-15.8l-11.8-35.7h14.3l5.7,17.8
	l6-17.8H157.5z"/>
<path d="M220.7,249.3h-14.2l-8-22.2l-3.8,10.3h6.6l4.3,11.9h-29l14-35.7h16L220.7,249.3z"/>
<path d="M254.5,231.9v17.4h-19c-12,0-19.2-8-19.2-18.4c0-10.2,8.9-18.3,19.1-18.3c10.4,0,19.1,7.5,19.1,18.4h-14
	c-0.3-2.6-2.5-4.5-5-4.5c-2.8,0-5.1,2.3-5.1,5.1c0,2.8,2.3,5.1,5.1,5.1h5v-3.8h-3.8v-0.9H254.5z"/>
<path d="M274.2,227.8l-2.7-4.7l5.4-9.4h15.5l-14.7,24.2v11.5h-13.3v-11.4l-14.8-24.3h15.5l8.3,14.2L274.2,227.8z"/>
<path d="M326.9,213.6v19.1c0,11.8-8.5,17.6-17,17.6s-17-5.9-17-17.6v-19.1h13.3v19.1c0,2.9,1.9,4.3,3.7,4.3c1.8,0,3.7-1.4,3.7-4.3
	v-19.1H326.9z"/>
<path d="M338.4,235.9h7.5l-0.6-0.9h-3.8c-2.3-2.2-3.2-5.4-3.2-8.5c0-9.1,5.4-12.9,16.8-12.9h19.2v13.5h-17.2c-6.1,0-6.7,8.8,0,8.8
	c5.5,0,5.2-6.9,1.1-8h12.1c2.8,2.2,4.4,5.6,4.4,9.1c0,9.2-6.3,12.2-16.5,12.2h-19.7L338.4,235.9z"/>
<path d="M412,213.6l6.2,17.8l5.7-17.8h14.3l-11.8,35.7h-15.9l-6-16.6h-0.7l2.1,5.9l-3.8,10.7h-15.8l-11.8-35.7h14.3l5.7,17.8l6-17.8
	H412z"/>
<path d="M475.3,249.3H461l-8-22.2l-3.8,10.3h6.6l4.3,11.9h-29l14-35.7h16L475.3,249.3z"/>
<path d="M475.8,213.6h17c20.7,0,22.8,30.3,0.3,30.3h-3.1v-12.4h3.1c3.9,0,3.9-5.1,0-5.1h-4v22.8h-13.3V213.6z"/>
<path class="st0" d="M114.3,234.3c0,10.7-9.2,19.4-20.6,19.4s-20.6-8.7-20.6-19.4c0-1.4,0-8.6,3.2-14.5c3.1-5.7,8.5-9.4,8.5-9.4
	s0.1,1.7,0.3,3.4c0.1,0.6,0.2,1.2,0.4,1.7c0-1.5,0.6-5.1,2.9-9.4c2.6-5,7.4-9,7.4-9c-0.1,2.4-0.1,4.9,0.1,7.3
	c0.4,3.4,1.8,6.5,2.2,6.8c0.1-0.7,0.2-1.4,0.4-2.1c0.3-0.7,0.6-1.4,1.1-2c0.1-0.3,0.2,2.7,1.2,4.5c2.5,4.4,8.8,10,10.2,12.2
	C113.2,226.8,114.3,230.5,114.3,234.3z"/>
<path class="st1" d="M95.1,251.3c-11.4,0-20.6-8.7-20.6-19.4c0-1.3,0-8,2.8-13.7c-0.3,0.5-0.6,1-0.9,1.6c-3.2,5.9-3.2,13.2-3.2,14.6
	c0,10.7,9.2,19.4,20.6,19.4c8.4,0,15.6-4.7,18.8-11.4C108.9,247.7,102.4,251.3,95.1,251.3z"/>
<path class="st1" d="M85.1,213.8c0.1,0.6,0.2,1.2,0.4,1.7c0-1.4,0.7-5.1,2.7-9.2c-0.4,0.6-0.9,1.5-1.2,2.2c-0.8,1.5-1.5,3.1-2,4.8
	C85,213.4,85.1,213.6,85.1,213.8z"/>
<path class="st2" d="M97.4,228.3c-4,4.9-9.7,7.9-8.3,9.2c1.5,1.4,10,6.1,16.7-0.7c3.5-3.6,3.2-9.2,1.2-12.6c0,0,1.2-3.4,1.1-3.6
	c-0.2-0.8-4.3-5.2-4.9-5.5c-0.3,1.9-0.7,3.7-1.2,5.5C101.5,222.2,99.8,225.4,97.4,228.3z"/>
<path class="st3" d="M99.8,230.2c-2.6,3.2-6,5.3-5,6.1c1,0.7,4.7,2.6,8.9-1.7c3.2-3.3,1.8-7.6,0.8-8.3
	C103.5,225.5,101.9,227.6,99.8,230.2z"/>
<path class="st4" d="M100.8,232.1c-1.1,1.5-1.5,2.9-1,3.3c0.5,0.4,1.8-0.5,2.8-2c1.1-1.5,1.5-2.9,1-3.3
	C103.1,229.7,101.8,230.6,100.8,232.1z"/>
<path class="st5" d="M100.8,211.6c-0.2-0.3-0.3-0.6-0.4-0.9c-1.9,2.8-4.4,5.2-7.2,7.2c-3.6,2.5-5.5,4.3-6.5,9.7
	c-0.5,2.8-8.2-1.4-10.6,2.2c-1.1,1.5-1,3.1-1.6,4c0.2,4.4,3.2,8.7,3.2,8.7c-0.5-0.7-0.2-5.2,1.6-8.1c1.7-2.8,7.5-3,10.1-6
	c2.8-3.1,2.7-5.9,4.7-8.3c2.8-3.5,6.5-6.6,8.6-5.6C102,213.6,101.4,212.6,100.8,211.6z"/>
<path class="st5" d="M114.3,234.3c-0.2,1.3-1.6,4-3.4,4.5c-3.3,0.8-4.7-1.3-6.8,0.9c-3.4,3.3-8.4,4.5-12.9,3.1
	c-4.1-1.3-8.8,2.8-11.7,1.9c2.3,3,7.6,5.2,8.2,5.4c-0.4-0.5-1.8-2.5-0.5-3.2c2.5-1.3,6.1,1.2,8.7,0.5c3.1-0.9,4.5-3.5,6.1-4.5
	c0.8-0.5,5.2-4,10.5-0.6C113.7,239.7,114.3,237,114.3,234.3z"/>
</svg>
